<svg width="60" height="60" viewBox="0 0 60 60" fill="none" xmlns="http://www.w3.org/2000/svg">
<path d="M30 60C21.9867 60 14.4531 56.8794 8.78672 51.2133C3.12059 45.5469 0 38.0133 0 30C0 21.9867 3.12059 14.4531 8.78672 8.78672C14.4531 3.12059 21.9867 0 30 0C38.0133 0 45.5469 3.12059 51.2133 8.78672C56.8794 14.4531 60 21.9867 60 30C60 38.0133 56.8794 45.5469 51.2133 51.2133C45.5469 56.8794 38.0133 60 30 60ZM30 3.51562C22.9257 3.51562 16.275 6.27047 11.2727 11.2727C6.27047 16.275 3.51562 22.9257 3.51562 30C3.51562 37.0743 6.27047 43.725 11.2727 48.7273C16.275 53.7295 22.9257 56.4844 30 56.4844C37.0743 56.4844 43.725 53.7295 48.7273 48.7273C53.7295 43.725 56.4844 37.0743 56.4844 30C56.4844 22.9257 53.7295 16.275 48.7273 11.2727C43.725 6.27047 37.0743 3.51562 30 3.51562Z" fill="#0EB0EE"/>
<path d="M28.2422 7.03546H31.7578V11.7267H28.2422V7.03546Z" fill="#0EB0EE"/>
<path d="M41.6722 15.8389L44.9889 12.5222L47.4744 15.0078L44.1577 18.3245L41.6722 15.8389Z" fill="#0EB0EE"/>
<path d="M48.2733 28.2422H52.9645V31.7578H48.2733V28.2422Z" fill="#0EB0EE"/>
<path d="M41.6691 44.1642L44.1546 41.6787L47.4713 44.9954L44.9858 47.4809L41.6691 44.1642Z" fill="#0EB0EE"/>
<path d="M28.2422 48.2733H31.7578V52.9645H28.2422V48.2733Z" fill="#0EB0EE"/>
<path d="M12.5127 44.9922L15.8294 41.6755L18.3149 44.161L14.9982 47.4778L12.5127 44.9922Z" fill="#0EB0EE"/>
<path d="M7.03546 28.2422H11.7267V31.7578H7.03546V28.2422Z" fill="#0EB0EE"/>
<path d="M12.5158 15.0047L15.0013 12.5191L18.318 15.8358L15.8325 18.3214L12.5158 15.0047Z" fill="#0EB0EE"/>
<path d="M42.4092 31.7578H28.2422V17.5908H31.7578V28.2422H42.4092V31.7578Z" fill="#0EB0EE"/>
</svg>
