<svg width="56" height="85" viewBox="0 0 56 85" fill="none" xmlns="http://www.w3.org/2000/svg">
<path fill-rule="evenodd" clip-rule="evenodd" d="M0.273122 0C5.94769 0 11.6232 0 17.2977 0L25.3093 8.03924V30.9827C20.7573 31.9158 16.0004 32.7368 11.4484 33.6699C11.3874 33.6401 11.5622 33.0828 12.3779 32.5616L12.3815 31.4343C11.0387 31.2762 9.27249 29.5979 8.92198 29.1987C8.92198 29.1987 8.85279 28.0651 8.7399 27.4599C7.69293 26.534 7.62465 26.7824 6.53217 27.5276L6.55311 29.3116C6.04328 29.5871 4.41547 31.4117 3.1409 31.3891L3.14363 32.8741C3.41676 32.904 3.76271 33.0449 4.03583 33.0747L4.02036 35.2353C1.75617 35.3961 2.1349 36.3428 2.19954 39.0517C3.03438 39.413 4.27709 39.656 5.58352 39.6542C5.36229 40.2224 4.25615 40.0309 4.08864 40.768L4.00579 41.8898C3.64163 48.3023 2.98886 61.4243 2.6247 67.8367C2.14674 67.7166 0.636374 66.2975 0.273122 65.7591C0.273122 59.8887 0.273122 54.0155 0.273122 48.1451C0.273122 32.0982 0.273122 16.0469 0.273122 0Z" fill="#262D5B"/>
<path fill-rule="evenodd" clip-rule="evenodd" d="M56 61.2273C56 65.5323 56 69.2882 56 73.5942L31.4427 73.6059L24.3188 67.3055C22.8002 68.1058 22.589 68.356 21.9153 68.3759C20.4705 67.5792 19.2387 67.0237 17.5244 66.18C15.7792 67.0986 14.368 68.935 12.7448 68.8293C12.4107 61.9048 12.0775 54.9784 11.7433 48.0538C11.7042 45.6222 11.3946 40.1799 11.3946 40.1799C11.7889 40.029 12.722 39.2612 13.1171 39.1113L13.1099 38.7726L8.81547 37.0943L8.83095 36.6426L25.3093 40.2404L25.4158 52.8259L47.5077 52.7518C48.054 52.7518 48.1213 52.9469 48.5392 53.264L55.624 60.3981C55.776 60.3981 56 60.866 56 61.2273Z" fill="#262D5B"/>
<path fill-rule="evenodd" clip-rule="evenodd" d="M0 76.5082H1.94645L2.83045 77.3365L2.82226 82.5602C3.70262 82.5602 4.58208 82.5602 5.46244 82.5602C5.7656 82.861 6.06968 83.1627 6.37285 83.4635V84.9991C4.55203 84.9991 2.73122 84.9991 0.910407 84.9991L0 84.0958V76.5082Z" fill="#262D5B"/>
<path fill-rule="evenodd" clip-rule="evenodd" d="M28.3136 76.5082H30.2601L31.1441 77.3365L31.1359 82.5602C32.0163 82.5602 32.8957 82.5602 33.7761 82.5602C34.0793 82.861 34.3834 83.1627 34.6865 83.4635V84.9991C32.8657 84.9991 31.0449 84.9991 29.2241 84.9991L28.3136 84.0958V76.5082Z" fill="#262D5B"/>
<path fill-rule="evenodd" clip-rule="evenodd" d="M7.10117 76.5082H13.474V78.8568H10.6235L10.0427 79.4855H12.8513V81.9279H10.0427V82.5675H13.474L13.4777 84.9991H7.10117V76.5082Z" fill="#262D5B"/>
<path fill-rule="evenodd" clip-rule="evenodd" d="M17.0246 78.8568V82.5756L17.7375 81.9279V79.4891H20.5752V84.0398L19.6648 84.9991H15.1127C15.1127 84.9991 14.5055 84.337 14.2023 84.0055V77.4115L15.0217 76.5082H20.5752V78.0438L19.6648 78.8568H17.0246Z" fill="#262D5B"/>
<path fill-rule="evenodd" clip-rule="evenodd" d="M42.4249 76.5082H45.2472V77.7349L45.9755 79.3084V76.5082H48.7978V84.9991H45.9755V83.8546L45.2472 82.1086V84.9991H42.4249V76.5082Z" fill="#262D5B"/>
<path fill-rule="evenodd" clip-rule="evenodd" d="M55.8079 76.5082V78.8721H52.2683V79.5198H54.9886L55.8079 80.3933V83.9161L54.761 85H49.4351V82.5611H52.9857V81.9288H50.3336L49.4351 81.0021V77.4224L50.2544 76.5073L55.8079 76.5082Z" fill="#262D5B"/>
<path fill-rule="evenodd" clip-rule="evenodd" d="M26.7204 76.52L22.0318 76.5082L21.2352 77.3663L21.2125 84.9991H24.0347V81.9279H24.7631V84.9991H27.5735L27.5853 77.5018L26.7204 76.52ZM24.0347 80.3924V78.8568H24.7631V79.8052L24.0347 80.3924Z" fill="#262D5B"/>
<path fill-rule="evenodd" clip-rule="evenodd" d="M41.6966 77.3212L40.8199 76.5082H36.1432L35.3238 77.3212V84.0958L36.2688 84.9991H40.7416L41.6866 84.0841L41.6966 77.3212ZM38.8744 81.9279L38.146 82.572V78.8568H38.8744C38.8744 79.8802 38.8744 80.9045 38.8744 81.9279Z" fill="#262D5B"/>
</svg>
