<svg width="16" height="12" viewBox="0 0 16 12" fill="none" xmlns="http://www.w3.org/2000/svg">
<path d="M0.334012 0.973625C2.52995 2.83334 6.38314 6.10516 7.51564 7.12531C7.66767 7.263 7.83074 7.333 8.00002 7.333C8.16896 7.333 8.33174 7.26366 8.48342 7.12663C9.61689 6.10547 13.4701 2.83334 15.6661 0.973625C15.8028 0.858062 15.8236 0.654937 15.7129 0.513656C15.4571 0.187187 15.0756 0 14.6667 0H1.33336C0.924513 0 0.542981 0.187188 0.287137 0.513688C0.17645 0.654938 0.197293 0.858062 0.334012 0.973625Z" fill="#30355D"/>
<path d="M15.8067 1.98139C15.6885 1.92639 15.5495 1.94558 15.4512 2.02958C14.013 3.24864 12.1182 4.85933 10.6892 6.08849C10.614 6.15296 10.5717 6.24767 10.5733 6.34696C10.5749 6.44593 10.6208 6.53933 10.6983 6.60118C12.0261 7.66464 14.0271 9.12755 15.4721 10.1673C15.5297 10.2089 15.598 10.2301 15.6667 10.2301C15.7188 10.2301 15.7709 10.2181 15.8187 10.1933C15.9301 10.1363 16.0001 10.0217 16.0001 9.89674V2.2838C16 2.15392 15.9245 2.03577 15.8067 1.98139Z" fill="#30355D"/>
<path d="M0.528 10.1673C1.97331 9.12763 3.97463 7.66475 5.30209 6.60125C5.37956 6.53941 5.42547 6.44597 5.42709 6.34703C5.42872 6.24775 5.38641 6.15304 5.31122 6.08857C3.88216 4.85941 1.98697 3.24872 0.548844 2.02966C0.449875 1.94566 0.310562 1.92713 0.193375 1.98147C0.0755313 2.03585 0 2.154 0 2.28388V9.89685C0 10.0218 0.07 10.1364 0.181313 10.1934C0.229156 10.2182 0.28125 10.2302 0.333344 10.2302C0.402031 10.2302 0.470375 10.209 0.528 10.1673Z" fill="#30355D"/>
<path d="M15.5915 11.0741C14.196 10.0758 11.6253 8.21446 10.0908 6.96899C9.9658 6.86712 9.7848 6.87037 9.66177 6.97649C9.36068 7.23918 9.10871 7.46055 8.92999 7.62133C8.38115 8.11677 7.61943 8.11677 7.0693 7.62068C6.89124 7.46021 6.6393 7.23818 6.33818 6.97646C6.21611 6.86968 6.0348 6.86643 5.90946 6.96896C4.38014 8.21018 1.80658 10.0738 0.408798 11.0741C0.330986 11.1301 0.280861 11.2164 0.271111 11.3117C0.261673 11.4071 0.293236 11.5018 0.358673 11.5721C0.610986 11.844 0.966455 11.9999 1.33333 11.9999H14.6667C15.0336 11.9999 15.3887 11.844 15.6416 11.5722C15.7067 11.5022 15.7386 11.4075 15.7292 11.3121C15.7194 11.2167 15.6693 11.1301 15.5915 11.0741Z" fill="#30355D"/>
</svg>
